<?xml version="1.0" encoding="utf-8"?>
<!-- Generator: Adobe Illustrator 21.1.0, SVG Export Plug-In . SVG Version: 6.00 Build 0)  -->
<svg version="1.1" id="圖層_1" xmlns="http://www.w3.org/2000/svg" xmlns:xlink="http://www.w3.org/1999/xlink" x="0px" y="0px"
	 viewBox="0 0 2091.3 404" style="enable-background:new 0 0 2091.3 404;" xml:space="preserve">
<style type="text/css">
	.st0{fill:#231815;}
	.st1{fill:#000479;}
</style>
<path class="st0" d="M430.7,367.8c5.1-0.2,8.2-1.1,9.6-2.9s2.2-4.3,2.2-7.8v-63.2c-4-4.5-6.5-7.2-7.6-8.2c-1.1-0.9-2.4-1.3-4-1.6
	v-3.4h28.3l45.8,56.2h0.5v-39.7c0-4.5-0.9-7.8-2.4-9.6c-1.6-2-4.9-3.3-10-3.6v-3.3H522v3.4c-4.2,0.7-6.9,1.6-8.5,2.9
	c-1.3,1.3-2,3.8-2,7.8v78.7h-3.6L449.2,302h-0.9v52.4c0,4,0.5,6.9,1.6,8.7c1.8,2.7,5.4,4.2,10.9,4.3v3.4h-30.3L430.7,367.8"/>
<path class="st0" d="M537.1,344.4c5.8-3.6,14.9-7.1,27.2-10.7v-9.6c0-4-0.9-6.9-2.5-8.7c-1.6-2-4.7-2.9-8.9-2.9
	c-2.4,0-4.3,0.5-6,1.3c-1.4,0.9-2.4,2-2.4,3.3c0,0.5,0.2,0.9,0.2,1.3c0.2,0.4,0.5,0.7,0.7,1.1l0.7,0.9c0.5,0.7,1.1,1.6,1.4,2.4
	c0.4,0.9,0.5,1.8,0.5,2.9c0,2.5-0.9,4.5-2.5,5.8s-3.6,2-5.8,2c-2.5,0-4.7-0.7-6.5-2.4c-1.8-1.4-2.7-3.6-2.7-6.5
	c0-5.1,2.4-9.2,7.2-12.1c4.7-2.9,10.7-4.5,17.8-4.5c7.6,0,14,1.4,19,4.3c5.1,2.9,7.6,8.5,7.6,16.3v32.3c0,0.9,0.2,1.8,0.7,2.4
	c0.5,0.5,1.1,0.9,1.6,0.9s0.9-0.2,1.3-0.2c0.4-0.2,1.1-0.7,2-1.6l2,2.9c-2.5,3.1-5.4,5.1-8.7,6.3c-2,0.7-4.2,1.3-6.3,1.3
	c-4,0-6.9-1.1-8.7-3.4c-1.1-1.3-1.8-3.3-2.4-5.8c-3.6,3.6-7.8,6.3-12.5,7.8c-2.9,0.9-5.6,1.4-8.3,1.4c-3.6,0-7.1-1.1-10.3-3.4
	c-3.3-2.4-4.7-6-4.7-10.9C528.4,352.7,531.3,347.8,537.1,344.4 M560.4,361.4c1.1-0.7,2.4-2,3.6-3.6v-19.4c-3.6,0.9-6.7,2.2-9.4,4.2
	c-4.5,3.3-6.9,7.2-6.9,12.1c0,2.9,0.5,5.1,2,6.5c1.4,1.4,2.9,2.2,4.5,2.2C556.4,363.6,558.4,362.9,560.4,361.4"/>
<path class="st0" d="M593.8,315.4v-3.6c1.3-1.1,2.7-2.4,4.3-3.8c2.4-2,4.5-4.3,6.5-6.5c4-4.3,7.8-9.2,11.1-14.3h3.4v22.5h12.7v5.8
	h-12.7v40c0,1.8,0.2,3.4,0.9,4.7c0.9,2,2.4,2.9,4.3,2.9c1.6,0,3.3-0.5,4.3-1.8c1.3-1.3,2.4-2.9,3.6-5.1l3.3,1.6
	c-1.6,3.6-3.4,6.5-5.6,8.9c-3.8,4-8.5,6.2-14.1,6.2c-3.3,0-5.8-0.5-8.2-1.6c-4.5-2.4-6.7-6.3-6.7-12.3v-43.3L593.8,315.4"/>
<path class="st0" d="M638.4,367.9c2.4-0.4,4-0.9,4.9-1.6c1.3-1.3,2-3.3,2-6.3v-39.3c0-2.7-0.5-4.5-1.3-5.4c-0.9-0.9-2.7-1.6-5.4-2.2
	v-3.4h25.7v50.7c0,2.9,0.5,4.7,1.3,5.6c0.9,0.9,2.4,1.4,4.9,2v3.3h-31.7V368 M647.2,282c2-2,4.5-3.1,7.2-3.1c2.9,0,5.3,0.9,7.2,3.1
	c2,2,3.1,4.3,3.1,7.2c0,2.9-0.9,5.4-3.1,7.2c-2,2-4.3,2.9-7.2,2.9s-5.4-0.9-7.2-2.9c-2-2-3.1-4.5-3.1-7.2
	C644.3,286.4,645.2,283.8,647.2,282"/>
<path class="st0" d="M697.3,360.1c1.4,5.8,4.5,8.7,9.1,8.7c4.3,0,7.1-2.2,8.5-6.5c1.3-4.3,2-11.6,2-21.6s-0.7-17-2.2-21.6
	c-1.3-4.5-4.2-6.7-8.3-6.7c-4.5,0-7.6,2.9-9.1,8.7c-0.9,4-1.4,10.3-1.4,19.6C695.8,349.8,696.4,356.5,697.3,360.1 M684.8,317.4
	c5.8-6.2,13-9.2,21.6-9.2c8.9,0,15.9,3.3,21.6,9.6c5.6,6.3,8.5,14.1,8.5,23.2c0,8.9-2.9,16.7-8.3,23c-5.6,6.3-12.9,9.6-21.7,9.6
	c-8.7,0-15.9-3.1-21.6-9.2c-5.6-6.2-8.5-14.1-8.5-23.2C676.2,331.3,679.1,323.4,684.8,317.4"/>
<path class="st0" d="M742.2,367.9c2.4-0.2,4.2-0.9,5.4-2c1.3-0.9,1.6-3.1,1.6-6.2v-39.3c0-2.7-0.5-4.5-1.4-5.6s-2.9-1.6-5.6-2v-3.3
	h25.4v9.6c2-3.3,4.7-5.8,8.2-8c3.3-2,6.9-3.3,10.9-3.3c5.8,0,10.1,1.4,13.4,4.3c3.3,2.9,4.7,8.2,4.7,15.6V360c0,2.9,0.5,4.9,1.4,5.8
	c1.1,0.9,2.9,1.4,5.1,1.6v3.3h-31.4v-3.3c2.4-0.5,4-1.1,4.9-2s1.3-2.7,1.3-5.6v-32.3c0-3.1-0.4-5.4-0.9-6.9
	c-1.1-2.7-3.1-4.2-6.2-4.2c-2.4,0-4.3,0.9-6.3,2.5s-3.4,3.3-4.3,5.1v36c0,2.9,0.5,4.7,1.3,5.6c0.9,0.9,2.4,1.4,4.9,2v3.3h-32.1
	L742.2,367.9"/>
<path class="st0" d="M826.3,344.4c5.8-3.6,14.9-7.1,27.2-10.7v-9.6c0-4-0.9-6.9-2.5-8.7c-1.6-2-4.7-2.9-8.9-2.9
	c-2.4,0-4.3,0.5-6,1.3c-1.4,0.9-2.4,2-2.4,3.3c0,0.5,0.2,0.9,0.2,1.3s0.5,0.7,0.7,1.1l0.7,0.9c0.5,0.7,1.1,1.6,1.4,2.4
	c0.4,0.7,0.5,1.8,0.5,2.9c0,2.5-0.9,4.5-2.5,5.8s-3.6,2-5.8,2c-2.5,0-4.7-0.7-6.5-2.4c-1.8-1.4-2.7-3.6-2.7-6.5
	c0-5.1,2.4-9.2,7.2-12.1c4.7-2.9,10.7-4.5,17.8-4.5c7.6,0,14,1.4,19,4.3c5.1,2.9,7.6,8.5,7.6,16.3v32.3c0,0.9,0.2,1.8,0.7,2.4
	c0.5,0.5,1.1,0.9,1.6,0.9s0.9-0.2,1.3-0.2c0.5-0.2,1.1-0.7,2-1.6l2,2.9c-2.5,3.1-5.4,5.1-8.7,6.3c-2,0.7-4.2,1.3-6.3,1.3
	c-4,0-6.9-1.1-8.7-3.4c-0.9-1.3-1.8-3.3-2.4-5.8c-3.6,3.6-7.8,6.3-12.5,7.8c-2.9,0.9-5.6,1.4-8.3,1.4c-3.6,0-7.1-1.1-10.3-3.4
	c-3.3-2.4-4.7-6-4.7-10.9C817.6,352.7,820.7,347.8,826.3,344.4 M849.7,361.4c1.1-0.7,2.4-2,3.6-3.6v-19.4c-3.6,0.9-6.7,2.2-9.4,4.2
	c-4.5,3.3-6.9,7.2-6.9,12.1c0,2.9,0.5,5.1,2,6.5c1.3,1.4,2.9,2.2,4.5,2.2C845.7,363.6,847.7,362.9,849.7,361.4"/>
<path class="st0" d="M883.2,367.9c2.4-0.5,4-1.3,5.1-2.2c0.9-0.9,1.4-2.9,1.4-5.8v-68c0-2.9-0.5-4.7-1.3-5.4
	c-0.9-0.9-2.5-1.6-5.1-2.2V281h25.4v79c0,2.9,0.5,4.9,1.4,5.8s2.7,1.6,5.1,2.4v3.3h-31.7L883.2,367.9"/>
<path class="st0" d="M1020,282.4c5.8,2,8.9,3.1,9.6,3.1c1.6,0,3.1-0.5,4-2c0.9-1.3,1.6-2.7,2-4.2h3.6v31.2h-3.4
	c-3.3-6.7-6.5-12.1-10-15.9c-6.2-7.2-13.4-10.7-21.2-10.7c-8.9,0-15.2,4-19,11.6c-3.8,7.8-5.6,18.1-5.6,31c0,9.6,1.1,17.4,3.3,23.6
	c4.2,11.6,11.8,17.4,23,17.4c6.9,0,13.2-2,19.2-5.8c3.4-2.2,7.2-5.8,12-10.7l4,3.3c-5.3,5.8-9.8,10-13.8,12.7
	c-7.1,4.7-14.9,6.9-23.6,6.9c-13.2,0-24.3-4-33.2-11.8c-10-8.7-14.9-20.3-14.9-35c0-14.5,4.7-26.3,14.1-35.2
	c8.9-8.5,19.8-12.7,32.6-12.7C1008.6,279.1,1014.4,280.2,1020,282.4"/>
<path class="st0" d="M1050.1,367.9c2.4-0.2,4.2-0.9,5.4-2c1.3-0.9,1.6-3.1,1.6-6.2v-68c0-2.7-0.5-4.5-1.4-5.4
	c-0.9-1.1-2.9-1.8-5.6-2.2v-3.3h25.7v37.5c2.7-3.3,5.6-5.8,8.5-7.6c3.1-1.8,6.5-2.7,10.3-2.7c5.1,0,9.4,1.4,12.7,4.5
	c3.3,2.9,5.1,8.2,5.1,15.2V360c0,3.1,0.5,5.1,1.4,5.8c0.9,0.7,2.9,1.6,5.1,2.2v3.3h-31.4V368c2.4-0.5,4-1.1,4.9-2s1.3-2.7,1.3-5.6
	v-32.3c0-3.1-0.2-5.4-0.9-6.9c-1.1-2.7-3.1-4.2-6.2-4.2c-2.4,0-4.7,1.1-7.2,3.3c-2.4,2-3.6,3.6-3.6,4.3v35.7c0,2.9,0.5,4.7,1.3,5.6
	c0.9,0.9,2.4,1.4,4.9,2v3.3h-32.1L1050.1,367.9"/>
<path class="st0" d="M1124.2,367.9c2.4-0.4,4-0.9,4.7-1.6c1.3-1.3,2-3.3,2-6.3v-39.3c0-2.7-0.5-4.5-1.3-5.4
	c-0.7-0.9-2.7-1.6-5.4-2.2v-3.4h25.6v50.7c0,2.9,0.5,4.7,1.3,5.6c0.9,0.9,2.4,1.4,4.9,2v3.3h-31.7L1124.2,367.9 M1133.1,282
	c2-2,4.5-3.1,7.2-3.1c2.9,0,5.3,0.9,7.2,3.1c2,2,3.1,4.3,3.1,7.2c0,2.9-0.9,5.4-3.1,7.2c-2,2-4.3,2.9-7.2,2.9
	c-2.9,0-5.4-0.9-7.2-2.9c-2-2-2.9-4.5-2.9-7.2C1130.2,286.4,1131.1,283.8,1133.1,282"/>
<path class="st0" d="M1194.7,367.8c4.9-0.2,8.2-1.1,9.6-2.9s2.2-4.3,2.2-7.8v-63.2c-4-4.5-6.5-7.2-7.6-8.2c-1.1-0.9-2.2-1.3-4-1.6
	v-3.4h28.3l45.8,56.2h0.5v-39.7c0-4.5-0.9-7.8-2.4-9.6c-1.6-2-5.1-3.3-10-3.6v-3.3h28.8v3.4c-4.2,0.7-6.9,1.6-8.5,2.9
	c-1.3,1.3-2,3.8-2,7.8v78.7h-3.6l-58.7-71.4h-0.9v52.4c0,4,0.5,6.9,1.6,8.7c1.8,2.7,5.4,4.2,11.1,4.3v3.4h-30.3L1194.7,367.8"/>
<path class="st0" d="M1300.9,344.4c5.8-3.6,14.9-7.1,27.2-10.7v-9.6c0-4-0.9-6.9-2.5-8.7c-1.6-2-4.7-2.9-8.9-2.9
	c-2.4,0-4.3,0.5-5.8,1.3c-1.4,0.9-2.4,2-2.4,3.3c0,0.5,0.2,0.9,0.2,1.3s0.5,0.7,0.7,1.1l0.7,0.9c0.5,0.7,1.1,1.6,1.4,2.4
	c0.4,0.9,0.5,1.8,0.5,2.9c0,2.5-0.9,4.5-2.5,5.8s-3.6,2-5.8,2c-2.5,0-4.7-0.7-6.5-2.4c-1.8-1.4-2.7-3.6-2.7-6.5
	c0-5.1,2.4-9.2,7.2-12.1c4.7-2.9,10.7-4.5,17.9-4.5c7.6,0,13.8,1.4,19,4.3c5.1,2.9,7.6,8.5,7.6,16.3v32.3c0,0.9,0.2,1.8,0.7,2.4
	s1.1,0.9,1.6,0.9s0.9-0.2,1.3-0.2c0.5-0.2,1.1-0.7,2-1.6l2,2.9c-2.5,3.1-5.4,5.1-8.7,6.3c-2,0.7-4.2,1.3-6.3,1.3
	c-4,0-6.9-1.1-8.7-3.4c-0.9-1.3-1.8-3.3-2.4-5.8c-3.6,3.6-7.8,6.3-12.5,7.8c-2.9,0.9-5.6,1.4-8.3,1.4c-3.6,0-7.1-1.1-10.3-3.4
	c-3.3-2.4-4.7-6-4.7-10.9C1292.4,352.7,1295.3,347.8,1300.9,344.4 M1324.3,361.4c1.1-0.7,2.4-2,3.6-3.6v-19.4
	c-3.6,0.9-6.7,2.2-9.4,4.2c-4.5,3.3-6.9,7.2-6.9,12.1c0,2.9,0.5,5.1,2,6.5c1.4,1.4,2.9,2.2,4.5,2.2
	C1320.5,363.6,1322.3,362.9,1324.3,361.4"/>
<path class="st0" d="M1357.8,367.9c2.4-0.2,4.2-0.9,5.4-2c1.3-0.9,1.6-3.1,1.6-6.2v-39.3c0-2.7-0.5-4.5-1.4-5.6s-2.9-1.6-5.6-2v-3.3
	h25.4v9.6c2-3.3,4.7-5.8,8.2-8c3.3-2,6.9-3.3,10.9-3.3c5.8,0,10.1,1.4,13.4,4.3s4.7,8.2,4.7,15.6V360c0,2.9,0.5,4.9,1.4,5.8
	c1.1,0.9,2.9,1.4,5.1,1.6v3.3h-31.4v-3.3c2.4-0.5,4-1.1,4.9-2s1.3-2.7,1.3-5.6v-32.3c0-3.1-0.2-5.4-0.9-6.9
	c-1.1-2.7-3.1-4.2-6.2-4.2c-2.4,0-4.3,0.9-6.3,2.5s-3.4,3.3-4.3,5.1v36c0,2.9,0.5,4.7,1.3,5.6c0.9,0.9,2.4,1.4,4.9,2v3.3H1358
	L1357.8,367.9"/>
<path class="st0" d="M1510.6,280.8v3.4c-5.1,0.2-8.7,0.9-10.3,2.4c-1.6,1.4-2.5,4.7-2.5,10v44.6c0,6.9,0.9,12,2.4,15.6
	c2.9,6.9,8.5,10.3,16.7,10.3c10.3,0,17-3.8,20.8-11.4c2-4.2,2.9-10,2.9-17.4v-40.8c0-4.7-0.9-8.2-2.7-9.8c-1.6-1.8-5.1-2.9-10.3-3.3
	V281h29.4v3.4c-4.3,0.9-7.1,1.8-8.5,3.1c-1.3,1.3-2,4-2,8.2v42.8c0,11.4-2.7,20.1-8.2,26.3c-5.4,6.2-14.1,9.2-25.7,9.2
	c-15.2,0-25.7-4.5-31.4-13.8c-2.9-4.9-4.5-11.1-4.5-18.8v-44.6c0-5.1-0.5-8.2-2-9.6c-1.3-1.3-4.3-2.2-8.9-2.7v-3.4h44.9"/>
<path class="st0" d="M1561.9,367.9c2.4-0.2,4.2-0.9,5.4-2c1.3-0.9,1.6-3.1,1.6-6.2v-39.3c0-2.7-0.5-4.5-1.4-5.6s-2.9-1.6-5.6-2v-3.3
	h25.4v9.6c2-3.3,4.7-5.8,8.2-8c3.3-2,6.9-3.3,11.1-3.3c5.8,0,10.1,1.4,13.4,4.3s4.7,8.2,4.7,15.6V360c0,2.9,0.5,4.9,1.4,5.8
	s2.9,1.4,5.1,1.6v3.3h-31.4v-3.3c2.4-0.5,4-1.1,4.9-2s1.3-2.7,1.3-5.6v-32.3c0-3.1-0.2-5.4-0.9-6.9c-1.1-2.7-3.1-4.2-6.2-4.2
	c-2.4,0-4.3,0.9-6.3,2.5s-3.4,3.3-4.3,5.1v36c0,2.9,0.5,4.7,1.3,5.6c0.7,0.9,2.4,1.4,4.9,2v3.3h-32.1V368"/>
<path class="st0" d="M1636,367.9c2.4-0.4,4-0.9,4.7-1.6c1.3-1.3,2-3.3,2-6.3v-39.3c0-2.7-0.5-4.5-1.3-5.4c-0.9-0.9-2.7-1.6-5.4-2.2
	v-3.4h25.6v50.7c0,2.9,0.5,4.7,1.3,5.6c0.9,0.9,2.4,1.4,4.9,2v3.3H1636V367.9 M1645,282c2-2,4.5-3.1,7.2-3.1s5.3,0.9,7.2,3.1
	c2,2,3.1,4.3,3.1,7.2c0,2.9-0.9,5.4-3.1,7.2c-2,2-4.3,2.9-7.2,2.9s-5.4-0.9-7.2-2.9c-2-2-3.1-4.5-3.1-7.2
	C1642,286.4,1642.9,283.8,1645,282"/>
<path class="st0" d="M1706.5,309.6v3.3c-2.4,0.2-4.2,0.4-5.4,0.7c-1.3,0.5-1.6,1.3-1.6,2.9c0,0.4,0.2,0.9,0.5,2
	c0.4,0.9,0.5,1.6,0.7,2l10,25.6h0.9l9.1-22.8c0.5-1.1,0.7-2.2,1.1-3.3c0.2-1.1,0.5-2,0.5-2.7c0-1.8-0.5-3.1-2-3.6
	c-1.3-0.5-3.1-0.9-5.4-0.9v-3.3h20.1v3.3c-1.8,0.2-3.3,0.7-4.3,1.6c-1.1,0.9-2.2,2.9-3.3,5.4l-21.6,52.9h-3.4l-15.9-39.5
	c-1.1-2.9-2.2-5.4-3.3-7.8c-0.9-2.4-2.2-4.7-3.3-7.1c-1.3-2.4-2.2-3.8-2.9-4.3c-0.7-0.5-2-0.9-3.8-1.3v-3.3h33.5"/>
<path class="st0" d="M1777.3,333.5c-0.2-7.8-0.7-13.4-1.8-16.5c-1.1-3.3-3.4-4.7-6.7-4.7c-3.4,0-5.8,1.8-7.2,5.4
	c-1.3,3.6-2,8.9-2,15.8L1777.3,333.5 M1748.9,316.6c5.4-5.8,12.1-8.5,19.8-8.5c4.3,0,8.5,1.1,12.3,3.4c4,2.4,6.9,5.4,8.9,9.6
	c1.6,3.1,2.7,7.1,3.3,12c0.2,2.4,0.5,4,0.5,5.3h-33.9c0.4,5.4,1.3,10,2.5,14c2.5,7.2,7.2,11.1,13.8,11.1c3.3,0,6.2-0.9,8.9-2.9
	c1.6-1.3,3.8-3.3,6.3-6l3.1,2c-4.2,6.7-8.9,11.4-14.3,14.1c-3.6,1.6-7.6,2.5-12.1,2.5c-6.5,0-12.7-2.5-18.5-7.8
	c-5.8-5.1-8.5-13.4-8.5-24.6C1740.7,330.1,1743.4,322.3,1748.9,316.6"/>
<path class="st0" d="M1799.4,367.9c2.5-0.2,4.3-0.9,5.4-1.8c0.9-0.9,1.6-2.7,1.6-5.3l0.2-4v-36.2c0-2.9-0.5-4.7-1.4-5.6
	s-2.9-1.6-5.6-2v-3.4h25.4v10.5c2.9-3.6,5.6-6.5,8.5-8.9c2.9-2.2,6-3.3,9.6-3.3c2.7,0,5.1,0.9,7.2,2.7c2.2,1.6,3.3,4.3,3.3,7.8
	c0,2.5-0.7,4.7-2.4,6.5c-1.4,1.6-3.6,2.5-6,2.5c-2.9,0-5.3-1.3-7.2-4s-3.4-4-4.3-4c-1.8,0-3.6,1.1-5.4,3.3c-1.8,2.2-2.7,5.3-2.7,9.4
	v25.2c0,4.3,0.5,7.2,1.8,8.3s4,1.8,7.8,2.2v3.3h-35.5v-3.3"/>
<path class="st0" d="M1859.6,350.9h3.6c1.3,6.3,3.8,10.9,7.2,13.6c3.6,2.5,7.2,4,11.1,4c3.4,0,6-0.7,7.6-2.4
	c1.6-1.6,2.4-3.6,2.4-6.2c0-2.4-0.9-4.3-2.5-6.2c-0.9-0.9-2.4-2-4.7-2.9l-10-4.7c-5.3-2.5-8.9-5.4-11.2-8.3
	c-2.4-3.1-3.4-6.5-3.4-10.7c0-5.1,1.8-9.6,5.4-13.4s8.7-5.6,15.2-5.6c2.9,0,5.8,0.5,8.9,1.4c3.3,0.9,5.1,1.3,6,1.3
	c1.1,0,1.8-0.2,2.4-0.5c0.5-0.5,0.9-1.1,1.3-2h2.9v19.4h-3.4c-1.3-4.5-3.3-8.2-6.2-10.9s-6.2-4.2-10-4.2c-2.9,0-5.1,0.9-6.5,2.4
	c-1.4,1.6-2.2,3.4-2.2,5.4c0,1.6,0.5,3.3,2,4.7c1.3,1.6,3.6,3.3,7.2,5.1l7.2,3.6c4.5,2.2,7.8,4.3,10,6.3c3.4,3.4,5.3,7.8,5.3,12.9
	c0,4.9-1.8,9.6-5.4,14c-3.6,4.3-8.9,6.3-16.1,6.3c-1.8,0-3.6-0.2-5.4-0.5c-1.8-0.4-4-0.9-6.5-1.8l-2.4-0.7c-0.9-0.2-1.3-0.5-1.6-0.5
	c-0.2,0-0.4,0-0.7,0c-0.7,0-1.3,0.2-2,0.9c-0.5,0.5-1.1,1.6-1.8,2.9h-3.3v-22.5"/>
<path class="st0" d="M1910.4,367.9c2.4-0.4,4-0.9,4.7-1.6c1.3-1.3,2-3.3,2-6.3v-39.3c0-2.7-0.5-4.5-1.3-5.4
	c-0.7-0.9-2.7-1.6-5.4-2.2v-3.4h25.6v50.7c0,2.9,0.5,4.7,1.3,5.6c0.9,0.9,2.4,1.4,4.9,2v3.3h-31.7L1910.4,367.9 M1919.2,282
	c2-2,4.5-3.1,7.2-3.1s5.3,0.9,7.2,3.1c2,2,3.1,4.3,3.1,7.2c0,2.9-0.9,5.4-3.1,7.2c-2,2-4.3,2.9-7.2,2.9c-2.9,0-5.3-0.9-7.2-2.9
	s-3.1-4.5-3.1-7.2C1916.2,286.4,1917.2,283.8,1919.2,282"/>
<path class="st0" d="M1947.3,315.4v-3.6c1.3-1.1,2.7-2.4,4.3-3.8c2.4-2,4.5-4.3,6.5-6.5c4-4.3,7.8-9.2,11.1-14.3h3.4v22.5h12.7v5.8
	h-12.7v40c0,1.8,0.2,3.4,0.9,4.7c0.9,2,2.4,2.9,4.3,2.9c1.6,0,3.3-0.5,4.3-1.8c1.3-1.3,2.4-2.9,3.6-5.1l3.3,1.6
	c-1.6,3.6-3.4,6.5-5.6,8.9c-3.8,4-8.5,6.2-14.1,6.2c-3.3,0-5.8-0.5-8.2-1.6c-4.5-2.4-6.7-6.3-6.7-12.3v-43.3L1947.3,315.4"/>
<path class="st0" d="M1994.4,381.7c1.8-1.4,4-2.2,6.3-2.2c2,0,4,0.5,5.3,1.8s2,2.9,2,4.5l-0.4,2.9c0,0.5,0.2,1.1,0.5,1.6
	c0.5,0.5,0.9,0.7,1.6,0.7c2.2,0,4.2-1.6,6.2-5.3c1.3-2.2,2.9-6.5,5.1-12.9l-15.9-39.5c-1.1-2.9-2.2-5.4-3.3-7.8
	c-1.1-2.4-2.2-4.7-3.3-7.1c-1.3-2.4-2.2-3.8-2.9-4.3c-0.7-0.5-2-0.9-3.8-1.3v-3.4h33.3v3.3c-2,0-3.8,0.2-5.1,0.7s-2,1.3-2,2.9
	c0,0.4,0.2,0.7,0.2,1.3c0.2,0.5,0.5,1.4,1.1,2.9l10.5,26.8h1.1l8.5-24.1c0.5-1.3,0.7-2.4,1.1-3.4c0.2-0.9,0.5-1.8,0.5-2.5
	c0-1.8-0.5-3.1-1.8-3.6s-3.1-0.9-5.4-0.9v-3.3h20.1v3.3c-1.6,0.2-3.3,0.5-4.3,1.4c-1.1,0.7-2.2,2.7-3.4,5.8l-19.9,53.3
	c-3.6,9.8-6.9,16.5-9.4,20.1s-6.7,5.3-12.3,5.3c-4,0-7.2-1.1-9.2-3.3c-2-2-3.3-4.5-3.3-7.1C1991.9,385.3,1992.8,383,1994.4,381.7"/>
<path class="st0" d="M299.3,224.8c-5.6,6.3-13.8,10.5-23.2,10.5h-7.4c-5.8,0-10.7-4.7-10.9-10.5H299.3 M120.4,224.8
	c-7.6,4.3-16.3,6.9-25.7,6.9c-4.7,0-9.4-0.5-13.8-1.6c-3.8-1.1-7.4-2.9-10.5-5.1L120.4,224.8z M43,224.8
	c8.7,16.5,26.1,27.7,45.8,27.7l0.9-0.2c26.1,0,49.7-10,67.4-26.3l0.5-0.7c14.7,37.3,23.2,77.6,24.6,119.8h0.4
	c1.6-40.6,9.6-79.6,22.7-116c0.5-1.3,0.9-2.7,1.6-4h29.5c0.2,17.8,14.5,31.9,32.3,31.9l8.2-0.2c21.2-0.2,39.3-13.4,47.1-31.7h27.4
	c-3.3,28.5-13.6,54.9-29.2,77.2c-0.2-0.2-0.7-0.5-0.9-0.7c-33.9-23.9-74.1-39-117.6-42.8c-0.9,3.1-1.6,6.2-2.5,9.2
	c42.8,3.3,82.6,18.3,115.6,41.9c-10.7,13.6-23.4,25.6-37.5,35.3c-25.6-16.1-55.3-25.9-87.2-27.4c-0.4,2.9-0.5,5.8-0.9,8.7
	c29.2,1.3,56.2,10,79.7,23.9l0.2,0.2c-25.7,15.8-56,24.6-88.4,24.6s-62.7-9.1-88.3-24.6l0.2-0.2c23.6-14,50.7-22.5,79.7-23.9
	c-0.2-2.9-0.5-5.8-0.9-8.7c-31.9,1.6-61.8,11.4-87.2,27.2c-14.3-9.6-27-21.6-37.7-35.3c33.2-23.6,72.9-38.6,115.6-41.9
	c-0.9-3.1-1.6-6.2-2.5-9.2c-43.5,3.6-83.7,19-117.6,42.8c-0.2,0.2-0.7,0.5-0.9,0.7c-15.4-22.3-25.7-48.7-29.2-77.2h29L43,224.8
	L43,224.8z"/>
<path class="st0" d="M206.9,224.8C214.1,207,227,192,243,181.7c8-5.1,17.4-8.2,27.4-8.2c4.7,0,9.2,0.5,13.8,1.6
	c13,3.6,22.7,15.4,22.7,29.5c0,7.6-2.9,14.5-7.4,19.9H258c0-0.2,0-0.2,0-0.2c0-6,4.9-10.9,10.9-10.9h6.3c5.8,0,10.3-4.7,10.3-10.3
	c0-5.1-3.6-9.2-8.5-10c-2.5-0.7-5.3-0.9-8.2-0.9c-17.9,0-32.3,14.5-32.3,32.3v0.2L206.9,224.8 M205.4,149.6c0.2,0.5,0.4,1.1,0.5,1.6
	c4.3-0.4,8.7-0.9,13-1.6h124.3c5.6,16.1,8.9,33.3,9.2,51.3H335v8.5h17.4c-0.2,5.1-0.5,10.1-1.1,15.2h-27.4c2.5-6.2,4-13,4-20.1
	c0-28.6-23.2-51.8-51.8-51.8l-0.9,0.2c-26.1,0-49.7,10-67.4,26.3l-0.5,0.5c-4-10-7.2-19.9-10.3-30.3L205.4,149.6z M146.7,149.6
	c4.3,0.7,8.7,1.3,13,1.6c0.2-0.5,0.4-1.1,0.5-1.6h8.2c-2.5,9.1-5.4,17.9-8.5,26.8c-6.9,19.6-20.5,36.1-37.7,47.1
	c-0.5,0.4-1.3,0.7-1.6,1.1H70.4c-7.2-5.6-12.1-14.5-12.1-24.3c0-16.9,13.8-30.4,30.4-30.4l7.4-0.2c6,0,10.9,4.9,10.9,10.9
	s-4.9,10.9-10.9,10.9h-6.3c-5.8,0-10.3,4.7-10.3,10.3c0,5.1,3.6,9.2,8.5,10c2.5,0.5,5.3,0.9,8.2,0.9c17.9,0,32.3-14.5,32.3-32.3
	c0-15-10.3-27.7-24.3-31.2L146.7,149.6z M79.5,149.6c-24.1,4.3-42.2,25.6-42.2,50.9c0,8.7,2.2,17,6,24.3l-29.2-0.2
	c-0.5-5.1-0.9-10-1.1-15.2h17.4v-8.5H12.8c0.4-17.9,3.6-35.2,9.2-51.3H79.5z"/>
<path class="st0" d="M218.8,149.6c38.1-5.6,73.2-20.3,103.3-41.5c8.9,12.7,15.9,26.6,21.2,41.5H218.8 M160.1,149.6
	c0.7-2.5,1.4-5.1,2.2-7.4c-41.9-3.6-80.8-18.7-113.4-41.7c10.7-13.6,23.4-25.6,37.5-35.3c25,15.8,54.4,25.6,85.5,27.4
	c0.4-2.9,0.7-5.8,1.1-8.7c-28.5-1.6-55.1-10-78.5-23.9c25.7-15.6,55.8-24.6,88.1-24.6s62.3,9.1,88.1,24.6
	c-23.2,13.8-49.8,22.3-78.5,23.9c0.2,2.9,0.7,5.8,1.1,8.7c31.2-1.8,60.3-11.6,85.4-27.2c14.3,9.8,27,21.6,37.7,35.2
	c-32.6,23.2-71.4,37.9-113.4,41.5c0.5,2.4,1.4,4.9,2.2,7.4h-8.3c-8.3-28.5-13.2-58.4-14.3-89.3H182c-1.3,30.8-6.2,60.7-14.1,89.3
	L160.1,149.6L160.1,149.6z M22.2,149.6c5.1-14.9,12.3-28.8,21.2-41.5c29.9,21.2,65.2,35.9,103.3,41.5h-42.2
	c-2.5-0.7-5.3-1.1-8.2-1.1l-8.2,0.2c-3.1,0-6,0.4-8.9,0.9L22.2,149.6L22.2,149.6z"/>
<path class="st1" d="M182.8,375c-32.4,0-62.7-9.1-88.3-24.6l0.2-0.2c23.6-14,50.7-22.5,79.7-23.9c-0.2-2.9-0.5-5.8-0.9-8.7
	c-31.9,1.6-61.8,11.4-87.2,27.2c-14.3-9.6-27-21.6-37.7-35.3c33.2-23.6,72.9-38.6,115.6-41.9c-0.9-3.1-1.6-6.2-2.5-9.2
	c-43.5,3.6-83.7,19-117.6,42.8c-0.2,0.2-0.7,0.5-0.9,0.7c-18.3-26.5-29.4-58.2-30.3-92.4h17.4V201H12.8c0.9-34.4,12-66.3,30.4-93
	c33.3,23.7,73.2,39.1,116.2,43.1c0.9-3.1,1.8-6.2,2.7-9.2c-41.9-3.6-80.8-18.7-113.4-41.7C59.4,86.5,72,74.5,86.2,64.8
	c25,15.8,54.4,25.6,85.5,27.4c0.4-2.9,0.7-5.8,1.1-8.7c-28.5-1.6-55.1-10-78.5-23.9C120,44,150.1,35,182.4,35s62.3,9.1,88.1,24.6
	c-23.2,13.8-49.8,22.3-78.5,23.9c0.2,2.9,0.7,5.8,1.1,8.7c31.2-1.8,60.3-11.6,85.4-27.2c14.3,9.8,27,21.6,37.7,35.2
	c-32.6,23.2-71.4,37.9-113.4,41.5c0.9,3.1,1.8,6.2,2.7,9.2c43.1-4.2,82.8-19.6,116.2-43.1c18.5,26.5,29.5,58.4,30.4,93h-17.4v8.5
	H352c-0.9,34.4-12,66.1-30.3,92.4c-0.2-0.2-0.7-0.5-0.9-0.7c-33.9-23.9-74.1-39-117.6-42.8c-0.9,3.1-1.6,6.2-2.5,9.2
	c42.8,3.3,82.6,18.3,115.6,41.9c-10.7,13.6-23.4,25.6-37.5,35.3c-25.6-16.1-55.3-25.9-87.2-27.4c-0.4,2.9-0.5,5.8-0.9,8.7
	c29.2,1.3,56.2,10,79.7,23.9l0.2,0.2C245.3,366.1,215,375,182.8,375z M182.8,344.9c1.6-40.6,9.6-79.6,22.7-116
	c6.9-19.6,20.5-36.1,37.7-47.1c8-5.1,17.4-8.2,27.4-8.2c4.7,0,9.2,0.5,13.8,1.6c13,3.6,22.7,15.4,22.7,29.5
	c0,16.9-13.8,30.6-30.4,30.6H269c-6,0-10.9-4.9-10.9-10.9s4.9-10.9,10.9-10.9h6.3c5.8,0,10.3-4.7,10.3-10.3c0-5.1-3.6-9.2-8.5-10
	c-2.5-0.7-5.3-0.9-8.2-0.9c-17.9,0-32.3,14.5-32.3,32.3c0,17.9,14.5,32.3,32.3,32.3l8.2-0.2c28.5-0.4,51.1-23.6,51.1-51.8
	c0-28.6-23.2-51.8-51.8-51.8l-0.9,0.2c-26.1,0-49.7,10-67.4,26.3l-0.5,0.5C192.7,143,184.4,102.6,183,60.6h-0.4
	c-1.6,40.6-9.6,79.6-22.7,116c-6.9,19.6-20.5,36.1-37.7,47.1c-8,5.1-17.4,8.2-27.4,8.2c-4.7,0-9.4-0.5-13.8-1.6
	c-13-3.6-22.5-15.4-22.5-29.5c0-16.9,13.8-30.4,30.4-30.4l7.4-0.2c6,0,10.9,4.9,10.9,10.9S102.3,192,96.3,192H90
	c-5.8,0-10.3,4.7-10.3,10.3c0,5.1,3.6,9.2,8.5,10c2.5,0.5,5.3,0.9,8.2,0.9c17.9,0,32.3-14.5,32.3-32.3c0-17.9-14.5-32.3-32.3-32.3
	l-8.2,0.2c-28.5,0.4-51.3,23.6-51.3,51.8c0,28.6,23.2,51.8,51.8,51.8l0.9-0.2c26.1,0,49.7-10,67.4-26.3l0.5-0.7
	c14.7,37.3,23.2,77.6,24.6,119.8h0.7V344.9z"/>
<g>
	<path class="st0" d="M1991.9,208.8c-2,0.5-4.3,0.9-7.4,0.5c0,0-0.7-0.2-2-0.5H1991.9 M1604.5,208.8c0.9,0.5,2.2,0.9,3.3,0H1604.5z
		 M1434.1,208.8c1.6,0.5,7.8,2.5,10.5,0H1434.1z M1144.2,208.8c-0.2,2.7-0.4,5.1-0.7,6.7c0,0-0.9,7.2,8.2,0.5c0,0,9.6-3.4,11.1-7.2
		H1144.2z M551.2,208.8c0.2,0.4,0.4,0.7,0.5,0.9c0,0,9.6,4,11.8-0.9H551.2z"/>
	<path class="st0" d="M2001.9,194.7c-0.5,2.2-1.1,4-1.6,5.3c0,0-1.3,6.5-8.2,8.9h-9.6c-6.5-1.6-26.5-6.7-29.5-9.6c0,0-0.9-2.2,4-4
		l11.8-0.4L2001.9,194.7 M1828.4,194.7c3.3,2.7,6.5,5.3,10,7.6c0,0,37.3,4.5,41.5,0.5c0,0,15.6-2.4,9.2-8.2L1828.4,194.7
		L1828.4,194.7z M1647.4,194.7c-0.9,0.5-1.6,1.3-2.7,1.8c0,0-2.7,0.4-5.8-1.8H1647.4z M1592.1,194.7c0.2,0.5,0.9,1.4,2,2.2
		c0,0,5.8,2.2,8.9,10.7c0,0,0.5,0.5,1.3,0.9h3.3c0.4-0.4,0.5-0.9,0.9-1.4c0,0,3.4-4.7,5.8-12.5L1592.1,194.7z M1516.6,194.7
		c0.7,2.9,2.2,6,5.1,9.6l8.9-0.4c0,0,0.5-3.4,1.3-9.2L1516.6,194.7L1516.6,194.7z M1421.6,194.7c4,3.3,8.7,7.8,12.1,13.8
		c0,0,0.2,0.2,0.5,0.2h10.5c1.6-1.6,2-5.4-1.4-12.9c0,0,0-0.4,0-1.3L1421.6,194.7z M1313.4,194.7c0.5,0.9,0.9,1.6,1.4,2.4
		c0,0,1.6-1.1,3.8-2.4H1313.4z M1144.3,194.7c0.2,5.1,0.2,10-0.2,14h18.5c0.2-0.4,0.2-0.7,0.2-1.1c0,0,0.2-5.8,0.7-12.9H1144.3
		L1144.3,194.7z M889,194.7c-15.6,1.6-28.6,3.4-35.5,5.4v5.4c0,0,28.6-0.9,49.5-4.7c0,0,38.1-7.2,96.4,2.7c0,0,6.3-4.7,7.2-9.1
		L889,194.7z M788.4,194.7c5.4,0.9,9.6,2,11.8,3.6c0,0,4.5-1.4,7.6-3.6H788.4z M616.1,194.7c1.6,2.9,3.6,6.3,5.8,7.2
		c0,0,30.8-0.5,50.2-7.2H616.1z M538.1,194.7c4.2,3.1,9.2,7.8,13,14.1h12.3c0.9-2,0.5-5.6-2.2-11.8c0,0,0-0.9,0-2.4L538.1,194.7
		L538.1,194.7z M431,194.7c0.5,1.3,1.3,2.4,2,3.6c0,0,2.9-2,5.8-3.6H431z"/>
	<path class="st0" d="M1006.4,194.7c0.7-3.6-2-6.9-14.9-7.2c0,0-60.2,2.9-102.6,7.2H1006.4 M2004.6,180.7c-0.7,4-1.6,9.6-2.7,14h-33
		l9.2-0.4c0,0,10.7-1.6,10.7-8.9l1.4-4.9L2004.6,180.7L2004.6,180.7z M1812.7,180.7c4.9,4.7,10.3,9.6,15.8,14.1h60.5
		c-1.4-1.3-4.2-2.9-8.5-4.3c0,0-6.7-0.9-21.7-5.6c0,0-3.8-0.4-11.4-4L1812.7,180.7z M1737.7,180.7c-3.4,2-7.1,3.8-11.2,4.9
		c0,0-5.4,6.2,2.5,6.2l13.8-0.4c0,0,8.2,2.9,18.3-10.9L1737.7,180.7z M1654.5,180.7c0,3.8-1.3,9.4-7.1,14h-8.7c-2-1.3-4.5-3.8-6.5-8
		c0,0-0.2-2.4-0.9-6.2L1654.5,180.7z M1599.4,180.7c-1.3,4-3.1,8-6,10.9c0,0-2,1.3-1.3,3.1h21.9c1.1-4,2-8.7,2-14.1L1599.4,180.7z
		 M1567.5,180.7l-0.9,10.9c0,0,0.5,3.6,5.8,1.8c0,0,4.7-7.6,8.9-12.7H1567.5z M1518.6,180.7c-0.4,2-0.7,3.4-1.3,4
		c0,0-2.4,3.8-0.9,10h15.4c0.5-3.8,1.1-8.5,1.6-14H1518.6z M1309.2,180.7c-0.2,0.2-0.2,0.4-0.2,0.5c0,0,1.3,7.6,4.3,13.4h5.3
		c3.1-1.8,7.2-4,9.1-3.4c0,0,65.8-11.2,84.4-2.5c0,0,4.3,2,9.4,6h21.6c0-2.2,0-7.1,0.2-14.1L1309.2,180.7z M1203.4,180.7
		c2.5,3.3,5.8,6.5,10.3,9.2c0,0,5.6-0.9,10.9-9.2H1203.4z M1143.8,180.7c0.2,4.3,0.5,9.2,0.5,14.1h19.2c0.2-4.5,0.5-9.6,0.9-14.1
		H1143.8z M1091.1,180.7c0.9,0.9,2,1.6,3.3,2c0,0,2.4-0.4,4.7-2H1091.1z M893.2,180.7c0.4,1.3,2.2,4,12.1,0.4c0,0,0.9-0.2,2.4-0.4
		H893.2z M670.8,180.7c-0.5,0.4-1.3,0.5-2.4,0.9c0,0-23.2,4-46.9,1.6c0,0-9.4-0.2-7.8,6.7c0,0,0.9,2.2,2.2,4.7h55.8
		c2.9-0.9,5.4-2,7.6-3.3c0,0,77-2.4,108.9,3.3h19.4c1.8-1.3,3.3-2.9,2.7-4.3c0,0-0.9-5.1-5.8-9.6L670.8,180.7L670.8,180.7z
		 M427.8,180.7c-0.2,0.5-0.4,1.3-0.5,1.6c0,0,1.1,6.5,3.8,12.3h8c2.7-1.4,5.4-2.7,6.9-2.4c0,0,65.8-11.2,84.4-2.5
		c0,0,3.4,1.6,7.8,4.9h23.2c0-2.7,0.2-7.6,0.2-14.1H427.8V180.7z"/>
	<path class="st0" d="M1631.1,180.7c-0.7-3.6-2-8.7-4.3-14.1c0,0,15.6,0,27.2,9.8c0,0,0.5,1.6,0.5,4.2L1631.1,180.7 M1581.3,180.7
		c2.2-2.9,4.3-4.9,5.4-4.7c0,0,3.6-5.8-0.9-7.6l-8.9-3.3c0,0-4.9-0.9-8.5,4.3l-0.9,10.9L1581.3,180.7L1581.3,180.7z M2039.7,159.7
		c3.6,1.6,6.9,4.7,0.5,9.1c0,0-14.9,2-24.1-2c0,0-10.1-5.4-10.7,8.3c0,0-0.4,2.4-0.9,5.6h-14.1l2.5-8.5c0,0,5.1-8.5-9.2-8.2
		c0,0-18.7,2.9-25,4.7c0,0-16.1,3.8-23.2,2c0,0-3.1-3.3-2.5-5.8c0,0,0.9-3.3,2.9-5.3L2039.7,159.7z M1792.2,159.7
		c5.1,5.8,12.1,13.4,20.5,21h34.4c-7.2-3.3-17.8-9.6-31.9-21H1792.2z M1757,159.7c-4.5,7.8-10.9,15.6-19.4,21h23.6
		c3.6-4.7,7.2-11.4,11.1-21H1757z M1601.6,159.7c0,0.4-0.2,0.7-0.2,1.3c0,0,0.9,10.3-2,19.8h16.9c0-1.3,0-2.4-0.2-3.8
		c0,0-1.3-10.5-2.5-17.2L1601.6,159.7z M1520.5,159.7c-0.5,8.9-1.3,16.5-2,21h14.9c0.5-6.2,1.1-13.4,1.3-21H1520.5z M1393.7,159.7
		c-2,1.6-4,4.2-5.6,7.4l-4.3,1.3c0,0-0.5-2.7,1.3-8.9L1393.7,159.7z M1314.1,159.7c-1.1,7.8-2.5,14.9-4.7,21h134.1
		c0.2-5.8,0.2-13,0.4-21h-35.2c5.6,7.6,10.5,11.6,10.5,11.6c2.9,2.5-0.5,5.4-0.5,5.4c-6.9-3.1-84.1,1.3-84.1,1.3
		c-7.2,1.3-6.7-3.6-6.7-3.6V168c-0.2-4.2,1.4-6.9,3.6-8.5L1314.1,159.7z M1207.2,159.7c-1.6,2-3.4,4-5.4,5.8c0,0-6.9,0.4-4.7,3.8
		c0,0,1.8,5.4,6.5,11.4h21.2c2.9-4.5,5.8-11.1,7.8-21H1207.2z M1120,159.7c-0.2,0.5-0.5,1.3-0.5,2.4c0,0-0.2,8.9,5.8,6
		c0,0,14.1-4.5,17.4-2.4c0,0,0.5,6.5,0.9,15h20.8c0.5-7.1,1.3-12.9,2.2-13.6c0,0-0.4-3.8,5.1-3.8c0,0,2.5-2.5,9.4-2.9l-0.2-0.9
		L1120,159.7L1120,159.7z M1083.1,159.7c0.9,7.4,3.1,16.9,8,21h8.2c3.1-2,6.3-6.2,5.6-14.1c0,0,0.2-2.4-0.9-6.9H1083.1z
		 M887.9,159.7c0.9,5.6,2.9,14.9,5.4,20.5c0,0,0,0.2,0.2,0.5h14.9c8-1.1,33-4.3,42.2-1.6c0,0,2.5-2,4-6.3c0,0,2.9-5.8,5.6-13h-16.3
		c-3.3,6.5-10.1,14.5-10.1,14.5c-3.8-0.9-29.5,3.1-29.5,3.1l0.2-9.8c2.5-2.5,19.2-4,19.2-4c12.3,0.2,8.5-2,8.5-2
		c0-0.5-0.5-1.3-1.3-1.6L887.9,159.7z M661.7,159.7c4,4,8.9,9.6,11.1,14.3c0,0,1.8,4.3-2,6.7h133.9c-6-5.4-17.9-10.1-41.9-4.2
		c0,0-38.8,2.5-43.5,0c0,0-2.9-4.7-0.4-7.2c0,0,4-4.3,8.7-9.6h-15c-1.8,5.8-4.3,11.8-7.8,17c0,0-9.4,4.2-17-0.5
		c0,0-3.6-6.3-7.2-16.5H661.7z M513.3,159.7c-2.4,1.6-5.1,4.3-7.2,8.7l-4.3,1.3c0,0-0.5-3.1,1.6-10H513.3z M432.3,159.7
		c-0.9,7.8-2.4,14.9-4.5,21h133.7c0.2-5.8,0.2-13,0.4-21h-36.1c6,8.3,11.4,12.9,11.4,12.9c2.9,2.5-0.5,5.4-0.5,5.4
		c-6.9-3.1-84.1,1.3-84.1,1.3c-7.2,1.3-6.7-3.4-6.7-3.4v-6.3c-0.4-5.4,2.5-8.2,5.8-9.8L432.3,159.7L432.3,159.7z"/>
	<path class="st0" d="M943.5,159.7c0.9-1.6,1.4-3.3,1.4-4.7c0,0,3.8-5.4,1.8-9.6h17.4c-1.1,4.5-2.9,9.6-4.5,14.1h-16.1
		 M2000.4,145.6c-0.5,3.3-1.4,9.2-0.2,10.7c0,0,30.3-0.5,34.8,1.6c0,0,2.4,0.5,4.7,1.6h-104.2c0.9-1.1,2-2,3.6-1.6
		c0,0,46.8,2.7,48.6,0.5c0,0,2.4-8.5,0.2-12c0,0-0.2-0.4-0.2-0.7L2000.4,145.6z M1763.9,145.6c-1.4,3.8-3.8,8.9-6.9,14.1h15.2
		c1.1-2.7,2.2-5.6,3.3-8.9c0,0,1.8-9.8,8.2-1.3c0,0,3.3,4,8.7,10h23c-4.9-4-10.3-8.7-15.9-14.1H1764L1763.9,145.6L1763.9,145.6z
		 M1665,145.6c0.7,0.4,1.4,0.7,2.2,0.9c0,0,18.3,3.3,29.5-0.9H1665z M1584.3,145.6c-2.9,0.4-6,0.7-9.2,0.9c0,0-9.4,4,4,8.9
		c0,0,9.8-2.7,12.5-4.9c0,0,10.7-0.9,10,9.1h12c-0.4-2-0.7-3.6-0.9-4.7c0,0-1.3-2.7,4.3-4.3c0,0,3.1-2.7,7.8-5.1h-40.4v0.1H1584.3z
		 M1548.1,145.6v2.9c0,0,4.9,1.8,8.2,0.2c0,0,0.9-1.3,2.9-2.9L1548.1,145.6z M1521.5,145.6c-0.2,4.9-0.5,9.6-0.9,14.1h14.1
		c0.2-4.5,0.2-9.2,0.2-14.1H1521.5z M1407.3,145.6c0,0.5,0.2,1.1,0.2,1.6c0,0,7.2,7.2,10.5,9.1c0,0,5.4,3.4,6.3,1.3
		c0.2-0.2,0.5-5.1,0.7-12.1h19c-0.2,4.9-0.2,9.6-0.4,14.1h-35.2c-0.9-1.3-2-2.9-2.9-4.3c0,0-6-1.1-12,4.3h-8.5
		c1.1-3.6,2.9-8.2,6-14.1h16.1v0.1L1407.3,145.6L1407.3,145.6z M1315.4,145.6c-0.4,4.7-0.7,9.6-1.3,14.1h17.6c4-2.9,9.6-2.9,9.6-2.9
		c13.8-1.1,29.5-4.7,29.5-4.7c12.3-3.6,0.5-6.3,0.5-6.3c-0.2,0-0.4-0.2-0.5-0.2h-15.9c-1.8,1.3-4.3,1.6-4.3,1.6
		c-4.7,0.4-16.7,2.9-16.7,2.9c-4.7,1.6-6-2.2-6-2.2l0.2-2.2h-12.7L1315.4,145.6L1315.4,145.6z M1214.5,145.6
		c-1.8,5.1-4.2,10-7.2,14.1h25.2c0.2-0.9,0.2-1.6,0.4-2.4c0,0,0.5-4.9,2.2-11.6h-20.5L1214.5,145.6L1214.5,145.6z M1132.2,145.6
		l0.2,1.6c0,0,9.8-0.4,11.1,2.2l-0.2,6.3c0,0-0.5,2.5-4.7,2.4l-14.5-0.9c0,0-2.9-1.3-4.2,2.4h61.1l-0.5-3.4l-15.8-0.5l-0.7-6
		c0,0-1.6-3.3,2.4-4h-34.2L1132.2,145.6L1132.2,145.6z M1082.4,145.6c0.2,1.1,0.2,2.4,0,3.6c0,0,0,4.7,0.7,10.3h20.8
		c-0.7-3.4-2-8.2-4.7-14.1h-16.9L1082.4,145.6L1082.4,145.6z M881.2,145.6c-0.2,0.2-0.4,0.5-0.5,0.7c0,0,2.4,5.1,6.3,8.5
		c0,0,0.2,2,0.7,4.7h42.6c-6-3.3-28.8-2-28.8-2l0.2-9.8c0.5-0.9,1.4-1.6,2.9-2.2h-23.4V145.6z M715.7,145.6
		c-0.7,4.5-1.6,9.2-3.3,14.1h15c4-4.5,8.2-10,10.9-14.1H715.7z M652.3,145.6c-0.2,2.2,0.4,5.8,4.2,9.1c0,0,2.4,2,5.3,5.1h18.7
		c-1.6-4.2-3.3-8.9-4.5-14.1h-23.7V145.6z M525.5,145.6c0,0.9,0.2,2,0.2,2.9c0,0,7.2,7.2,10.5,9.1c0,0,5.4,3.4,6.3,1.3
		c0.2-0.2,0.5-5.4,0.9-13.4h19c-0.2,4.9-0.2,9.6-0.4,14.1h-36c-0.7-0.9-1.3-2-2-3.1c0,0-5.1-0.9-10.3,3.1h-9.8
		c1.3-3.6,3.1-8.3,6.2-14.1L525.5,145.6z M433.6,145.6c-0.2,4.7-0.7,9.6-1.3,14.1h19.6c3.6-1.6,7.6-1.6,7.6-1.6
		c13.8-1.1,29.5-4.7,29.5-4.7c12.3-3.6,0.5-6.3,0.5-6.3c-1.3-0.2-2.4-0.5-3.1-1.3h-12.1c-1.6,2-5.8,2.9-5.8,2.9
		c-4.7,0.4-16.7,2.9-16.7,2.9c-4.7,1.6-6-2.2-6-2.2l0.4-3.4L433.6,145.6L433.6,145.6z"/>
	<path class="st0" d="M1624.7,145.6c2.9-1.4,6.5-2.7,10.5-3.1c0,0,5.8-3.6-4.3-6.7c0,0-10.3-3.3-25.9,5.8c0,0-8.2,2.4-20.7,4H1624.7
		 M1425.2,145.6c0.2-4,0.4-8.9,0.5-14h18.8c-0.2,4.7-0.4,9.4-0.5,14H1425.2z M543.4,145.6c0.2-4,0.4-8.9,0.5-14h18.8
		c-0.2,4.7-0.4,9.4-0.5,14H543.4z M2013.1,131.6c-1.3,0.9-8.7,6.2-12.3,11.8c0,0-0.2,0.9-0.4,2.2h-12.9c-0.4-1.3-0.7-3.6,2.5-3.6
		c0,0,3.3-5.4,6-10.3L2013.1,131.6L2013.1,131.6z M1952.2,131.6c-0.4,0.9-0.5,2.2-0.2,3.6c0,0,1.3,4.9,4.3,5.4c0,0,13,0.2,17-3.4
		c0,0,6.9-3.3,11.2-5.8L1952.2,131.6z M1933.9,131.6c-0.2,3.1-0.2,6,0,8c0,0,0,3.3-2.2,3.1l-6.7-1.8c0,0-0.9-1.3-2-8.9v-0.2h10.9
		L1933.9,131.6L1933.9,131.6z M1764.1,131.6c1.3,1.1,2.2,3.3,2.2,7.6c0,0-0.7,2.5-2.4,6.5h35.2c-2.5-2.4-5.1-4.9-8-7.6
		c0,0-3.3-3.3-4.7-6.3L1764.1,131.6z M1745.1,131.6c2,1.8,5.8,2.9,12.9,0H1745.1z M1646.5,131.6c6.2,5.8,13,11.4,18.5,14.1h31.7
		c0.7-0.2,1.4-0.5,2-0.9c0,0,3.6-5.3-3.6-7.6c0,0-7.4-1.6-17.9-5.4L1646.5,131.6z M1566.8,131.6c-5.1,4.3-12.3,10-18.7,11.8v2h10.7
		c4-3.8,11.6-10.3,21.7-14h-13.8v0.2H1566.8z M1522,131.6c-0.2,4.5-0.4,9.2-0.5,14.1h13.6c0-4.5-0.2-9.2-0.5-14.1H1522z
		 M1407.5,131.6c-0.4,4.5-0.5,9.2-0.2,14H1391c0.5-0.9,0.9-1.6,1.4-2.7c0,0-1.3-4.7-3.4-11.2h18.5V131.6z M1315.9,131.6
		c-0.2,4.7-0.2,9.2-0.5,14h12.7l0.2-2c-1.3-5.1,4.3-5.4,4.3-5.4s15.8-4.5,20.1-4.9s3.8,4,3.8,4l0.4,4.7c0.4,1.8-0.9,3.1-2.2,4h15.9
		c-6-1.3-3.6-8.5-3.6-8.5c2.2-1.4,4.7-4.2,6.2-5.4h-57.3V131.6z M1218.3,131.6c-0.9,4.3-2,9.2-3.8,14h20.5c0.9-4.2,2.4-9.2,4.3-14
		H1218.3z M1131.3,131.6c0,0.4,0,0.7,0,1.1l0.9,12.9h34.1c0.5,0,0.9-0.2,1.4-0.2c0,0,8.2-0.7,13.8-5.4c0,0-2.9-4.9-6.5-8.5
		L1131.3,131.6L1131.3,131.6L1131.3,131.6z M1075.1,131.6c0.2,0.2,0.5,0.4,0.7,0.5c0,0,6,4.3,6.7,13.4h17c-1.6-4-4-8.7-6.9-14.1
		L1075.1,131.6z M953,131.6L953,131.6c0.2,0-7.6,0.4-11.1,4.2c0,0-50.2-2.2-60.5,9.8h23.2c8.5-4,31.4-4.7,31.4-4.7
		c6.9,0.2,10,2.2,11.1,4.7h17.4c0.7-3.3,1.1-6,0.9-8.2c0,0,0.2-6.9,7.8-4.7c0,0,28.5,2.4,31.9,0.4c0,0,1.3-0.2,3.1-1.4L953,131.6
		L953,131.6z M862.2,131.6c-0.9,0.5-1.8,0.9-2.9,1.3c0,0-3.4,6.3,5.1,10c0,0,11.4-5.4,21.6-11.1h-23.7L862.2,131.6L862.2,131.6z
		 M717.2,131.6c-0.2,4-0.5,8.9-1.3,14h22.8c1.6-2.5,2.5-4.7,2.4-5.8l0.4-8.2H717.2L717.2,131.6z M660.1,131.6l-7.2,11.8
		c0,0-0.4,0.9-0.4,2.2h23.6c-1.3-4.3-2.2-9.1-3.1-14H660.1z M525.8,131.6c-0.4,4.5-0.5,9.2-0.4,14.1h-15.6c0.2-0.5,0.5-0.9,0.9-1.4
		c0,0-1.3-5.3-4-12.5L525.8,131.6z M433.9,131.6c0,4.7-0.2,9.2-0.5,14h12.7l0.2-0.9c-1.3-5.1,4.3-5.4,4.3-5.4s15.8-4.5,20.1-4.9
		c4.3-0.4,3.8,4,3.8,4l0.4,4.7c0.2,1.1-0.2,2-0.7,2.9h12.1c-2.9-2.4-1.1-7.2-1.1-7.2c3.1-2,6.9-6.3,6.9-6.3c0.2-0.2,0.4-0.2,0.5-0.4
		h-58.7L433.9,131.6L433.9,131.6z"/>
	<path class="st0" d="M1996.1,131.6c1.4-2.7,2.9-5.1,3.6-6.5c0,0,0.9-4.3,7.2-2.2l9.8,4.5c0,0,4,1.8-3.3,4c0,0-0.2,0-0.2,0.2H1996.1
		z M1984.8,131.6c2.4-1.4,4-2.9,2.7-3.1c-3.6-0.9-27.7-0.2-29.9-0.4c0,0-4.2,0.5-5.4,3.4h32.6L1984.8,131.6L1984.8,131.6z
		 M1425.8,131.6c0.2-6.5,0.4-14,0.5-21.2h19.2c-0.4,7.1-0.5,14.1-0.9,21.2H1425.8z M1092.5,131.6c-1.3-2.5-2.9-5.1-4.7-8
		c0,0-1.6-4.7-5.1-5.1l-9.8,2c0,0-2.9,6.9,2.2,11.1H1092.5L1092.5,131.6z M672.8,131.6c-0.2-0.9-0.2-1.6-0.4-2.4
		c0,0-2.9-13.8-8.9-3.1l-3.4,5.4L672.8,131.6L672.8,131.6z M543.9,131.6c0.2-6.5,0.4-14,0.4-21.2h19.4c-0.4,7.1-0.5,14.3-0.9,21.2
		H543.9z M2052.4,110.4c-3.3,2-10.3,5.8-23.4,7.2c0,0-0.2-4.2-1.4-7.2H2052.4z M2012,110.4c-10.7,2.4-35.9,7.1-76.5,7.2
		c0,0-1.1,7.2-1.6,14h-11.1c0-2-0.2-14.1-4-21.2C1918.8,110.4,2012,110.4,2012,110.4z M1769.9,110.4c-0.4,2.4-0.7,4.5-1.3,6.5
		c0,0-1.3,5.4-7.8,5.8c0,0-12.5-0.9-15.9,0.2c0,0-2.2,0.5-2.4,4c0,0,0.2,2.9,2.4,4.7h12.9c0.2,0,0.2-0.2,0.5-0.2
		c0,0,3.4-1.8,5.8,0.2h22.5c-1.3-2.9-0.9-5.8,4.9-6.5c0,0,8.9-4.3,25.4-1.4c0,0,9.4-0.7,19.2-5.1c0,0-0.5-4.3-4.3-8.2h-28.5
		c-1.8,0.5-3.8,1.1-5.8,1.8c0,0-19,5.1-14.3-1.8C1783.2,110.4,1769.9,110.4,1769.9,110.4z M1626.2,110.4
		c2.9,3.4,11.1,12.7,20.1,21.2h30.8c-11.1-4.2-25.4-10.9-37.9-21.2C1639.2,110.4,1626.2,110.4,1626.2,110.4z M1543,110.4L1543,110.4
		c0,0.2,3.1,12.1,4.7,12.7c0,0,13,0.9,17.4-1.1c0,0,5.4-2.2,8,3.6c0,0-2.7,2.7-6.5,6.2h14c0.2-0.2,0.4-0.2,0.5-0.2
		c0,0,32.1-3.3,38.4-2.7c0,0,2.7-1.6,4-4c0,0-0.4-3.6-4.9-4.5c0,0-15.6,0.7-25.4,3.8c0,0-3.1-8.5-0.7-11.6l1.6-2h-9.2
		c-0.5,0.7-1.3,1.4-2.4,2.4c0,0-6.3,8.5-9.4,2c0,0-9.2-0.9-17.9-4.3L1543,110.4z M1522.7,110.4c-0.2,6-0.4,13.4-0.7,21.2h12.5
		c-0.2-3.8-0.5-7.6-0.9-11.4c0,0,0.2-4,0.4-9.8H1522.7z M1388.4,110.4c1.6,3.1,3.8,6.5,6.9,10c0,0,5.4,0.9,4.3-3.4
		c0,0,0.4-3.3,0.5-6.5h10.7c-0.5,2.2-2.4,10.9-3.3,21.2h-18.3c-2-5.8-4.9-13-8.5-19.9c0,0-0.2-0.5-0.4-1.3L1388.4,110.4
		L1388.4,110.4z M1315.6,110.4c0.2,6.5,0.4,13.8,0.2,21.2h57.3c0.5-0.5,0.9-0.9,0.9-0.9c5.6-2.9,3.1-8.2,3.1-8.2
		c-2-6.3-7.2-6.5-7.2-6.5l-5.6,7.2c-3.1,5.4-8.2,3.8-8.2,3.8c-9.4,0.7-5.4-4-5.4-4l4.3-7.2c2.4-2.4,2.5-4.3,2-5.6h-13.8
		c-2.4,5.8-4.2,11.1-4.2,11.1c-0.9,4.3-4,5.4-4,5.4c-5.6,1.6-7.8-1.3-7.8-1.3c1.1-5.1,1.8-10.3,2.2-15.2L1315.6,110.4z
		 M1220.1,110.4c0.7,0.5,2,2.7,0,9.2c0,0-0.4,5.1-1.6,12.1h21c2.4-6.2,5.8-12.1,10.1-16.5c0,0,0.9-2.4,1.6-4.7L1220.1,110.4z
		 M950.4,110.4c0.2,0.5,0.4,1.3,0.5,2c0,0-0.9,13.8,1.8,19h55.1c3.3-2.2,8.2-7.6,10.3-21c0,0,0-0.2,0.2-0.2h-15.9
		c-2.4,4-6.7,8.9-15,12.1c0,0-21.4,2-22.7-0.2l-0.2-12L950.4,110.4L950.4,110.4z M929.2,110.4c-3.8,6.3-7.8,13.2-8.9,14.9
		c0,0,2.5,2.2,4.7,3.4c0,0,8.5-12.7,15-18.3L929.2,110.4L929.2,110.4z M897,110.4c0.4,0.5,0.9,1.1,1.8,1.6c0,0,3.3,2.9,8.9,4.7
		l6.5,0.5c0,0,2-6-1.8-6.2l-1.1-0.9L897,110.4L897,110.4z M872.1,110.4c-0.5,4.7-2.4,16.7-10,21.2h23.7c5.4-2.9,10.3-6,13-8.2v-3.8
		c0,0-8.2,0.7-17.4,3.6c0,0-2.9-0.9-0.7-12c0,0,0-0.4,0-0.9L872.1,110.4L872.1,110.4z M715.7,110.4c0.7,2.2,1.3,5.4,1.1,9.8
		c0,0,0.4,4.5,0.2,11.4h24.3l0.2-5.4c0,0-7.2-6-18.7-8.7c0,0-1.3-3.6-1.3-6.9L715.7,110.4z M656.3,110.4c0.5,1.6,2.2,2.5,5.4,2
		c9.8-1.6-0.5,0.9-0.5,0.9s2.2-1.3,6.5-2.9H656.3z M506.1,110.4c1.6,3.4,4,7.2,7.4,11.1c0,0,5.4,0.9,4.3-3.4c0,0,0.5-4.3,0.5-7.8
		h10.9c-0.2,0.2-0.2,0.4-0.2,0.5c0,0-2.2,9.2-3.3,20.5h-19c-2-5.6-4.7-12.1-8.2-18.7c0,0-0.2-0.9-0.5-2.4h8v0.2L506.1,110.4
		L506.1,110.4z M433.8,110.4c0.2,6.5,0.4,13.8,0.4,21.2h58.5c4.9-2.9,2.4-7.8,2.4-7.8c-2-6.3-7.2-6.5-7.2-6.5l-5.6,7.2
		c-3.1,5.4-8.2,3.8-8.2,3.8c-9.4,0.7-5.4-4-5.4-4l4.3-7.2c3.3-3.3,2.4-5.4,1.4-6.9h-12.7c-2.7,6.3-4.7,12.1-4.7,12.1
		c-0.9,4.3-4,5.4-4,5.4c-5.4,1.6-7.8-1.3-7.8-1.3c1.3-5.6,2-11.1,2.4-16.3L433.8,110.4z"/>
	<path class="st0" d="M1991,101.9c0,0,1.4-6.7-6.2-3.3c0,0-6.7,0.4-7.2,3.1l-2.4,3.1c0,0-1.4,8,4.3,4.9c0,0,7.6-0.9,10.3-0.7
		C1989.9,109,1992.8,105.3,1991,101.9 M1966,105.5c0,0-5.8-2.4-8.9-0.5c0,0-6.3,6.2,0.4,5.4C1957.5,110.4,1964.2,110.8,1966,105.5
		 M1831.7,110.4c-0.9-0.9-2.2-2-3.6-2.7c0,0-4.9-3.1-25,2.7H1831.7z M1426.1,110.4c0-4.7,0-9.2-0.2-13.8h20.1
		c-0.2,4.7-0.5,9.2-0.7,14L1426.1,110.4z M1400.2,110.4c0-1.4-0.2-3.1-0.4-4.2c0,0-1.3-4,4.3-3.8l7.2,2.2c0,0,0.9,0.9-0.5,5.1
		c0,0,0,0.2-0.2,0.5h-10.5L1400.2,110.4L1400.2,110.4z M1343.3,110.4c0.4-0.9,0.7-1.6,1.1-2.5c0,0,0.5-7.8,6.9-2.4l3.8,2.5
		c0,0,1.4,0.9,2,2.4H1343.3z M1018.6,110.4c0.5-1.1,2.5-5.6,0-7.4c0,0-12.3-6.5-13.2,0.2c0,0-0.2,3.3-2.7,7.2
		C1002.7,110.4,1018.6,110.4,1018.6,110.4z M911.3,110.4l-6.3-5.6c0,0-3.3-3.3-6.5,1.8c0,0-2.7,1.6-1.4,4L911.3,110.4z M544.3,110.4
		c0-4.7,0-9.4-0.2-14h20.1c-0.2,4.7-0.5,9.2-0.7,14H544.3z M518.2,110.4c0-1.1-0.2-2-0.4-2.9c0,0-1.3-4,4.3-3.8l7.2,2.2
		c0,0,0.7,0.7-0.2,4.5L518.2,110.4L518.2,110.4z M461.9,110.4c0.2-0.4,0.4-0.9,0.5-1.3c0,0,0.5-7.8,6.9-2.4l3.8,2.5
		c0,0,0.7,0.5,1.3,1.3L461.9,110.4L461.9,110.4L461.9,110.4z M1952.6,96.6c0.7,0.5,2.5,1.1,6.7,0.9c0,0,0.2-0.4,0.7-0.9h8.5
		c0.5,0.5,1.1,1.3,1.4,2c0,0,2.4-0.2,4.2-2h19V97l6.5,8.2c0,0,15.9,1.1,18.7-1.1c0,0,3.3-8.5-2.2-6.7c0,0-1.3-0.2-3.3-0.5h36.2l8,6
		c0,0,1.6,5.8-2.7,6.2c0,0-0.5,0.7-2.2,1.6h-24.8c-0.2-0.7-0.5-1.4-1.1-2c0,0,1.8-3.1-8.5,0.4c0,0-2,0.5-6.2,1.6h-93.1
		c-1.3-2.4-2.9-4.3-5.1-5.1c0,0-2.5-8.5,8.2-6.2c0,0,6.2,6.7,12,10l6.2,0.5c0,0,3.3-0.9,2.7-4.9c0,0-0.4-3.4-1.1-8.3L1952.6,96.6z
		 M1770.8,96.6c0,4.5-0.2,9.4-0.7,13.8h13c0,0,0,0,0.2-0.2c0,0,0.4-6.9,1.8-13.8L1770.8,96.6z M1617.1,96.6l-8,11.1
		c0,0,11.6-0.4,15.9,1.4c0,0,0.4,0.5,1.1,1.3h13.2c-1.8-1.4-3.6-3.1-5.4-4.7c0,0-1.6-5.1-0.2-9.1
		C1633.7,96.6,1617.1,96.6,1617.1,96.6z M1567.1,96.6c-0.2,0.5-0.5,1.3-0.7,1.6c0,0,7.6,3.6,14.1,5.1c0,0,7.8,2.4,4.3,7.1h9.2
		l12.1-13.8h-15.4c-1.1,0.5-2.2,0.4-3.3,0L1567.1,96.6L1567.1,96.6z M1542.5,96.6c-0.2,5.6-0.2,11.6,0.5,13.8h12.3
		c-0.2-0.2-0.5-0.2-0.7-0.2c0,0-8.5-2-4.5-13.6C1550.1,96.6,1542.5,96.6,1542.5,96.6z M1523.1,96.6c0,0.9-0.2,6.2-0.4,13.8h11.2
		c0.2-4,0.5-9.1,0.7-13.8H1523.1z M1384.5,96.6c0.2,3.4,1.3,8.2,4.2,13.8h-8.3c-0.7-2.7-2.5-8.7-5.3-13.8H1384.5z M1314.9,96.6
		c0.2,4.2,0.5,8.9,0.7,13.8h14.1c0.5-4.9,0.5-9.6,0.5-14L1314.9,96.6z M1135.5,96.6c0.2,2.7-0.2,6-1.6,9.2c0,0-1.6,2.5-6.9,1.3
		c0,0-10.1-3.1-12.9,3.3c0,0,0,0,0,0.2h80.6c6.9-1.3,15.2-1.8,25.2-0.2c0,0,0.2,0,0.2,0.2h31c0.5-2.5,0.9-5.3-0.5-5.8
		c0,0-6.3-3.4-21.9-8H1218c-5.3,2-13.8,5.1-20.3,6.9c0,0-19.8,3.3-29.9-2.9c0,0-6.9,1.3-8.5,5.8l-8.5-0.5c0,0-1.6-3.4,0.2-9.4
		L1135.5,96.6z M937.2,96.6c-0.2,0.5-0.5,1.1-0.9,1.6c0,0-3.4,5.8-7.1,12.1h10.7c1.8-1.6,3.6-2.5,4.9-2.7c0,0,3.8-2.4,5.8,2.7h14.3
		l-0.2-13.8L937.2,96.6L937.2,96.6z M869.4,96.6c0.7,4.3,1.6,8.7,2.9,12.1c0,0,0,0.5-0.2,1.8h8.5c0.2-2,0.9-6.5,6.9-7.6
		c0,0,10.3-6.2,19.8-6.2c0,0,0.2,0,0.4-0.2L869.4,96.6L869.4,96.6z M666.6,96.6c-3.6,1.4-6.9,3.1-9.2,4.7c0,0-2.5,5.8-1.3,9.2h11.4
		c7.2-2.7,20.5-6.2,40-5.6c0,0,5.6-1.6,8.2,5.6h5.8c0-1.4,0.4-2.9,1.3-3.8c0,0,0-5.8,21-10L666.6,96.6z M502.4,96.6
		c0.2,3.3,0.7,8.2,3.6,13.8h-8.2c-0.9-3.3-2.9-9.2-5.6-14L502.4,96.6z M432.9,96.6c0.2,4,0.5,8.9,0.7,13.8h14.3
		c0.4-4.9,0.5-9.6,0.5-13.8H432.9z"/>
	<path class="st0" d="M1960,96.6c0.9-1.3,2.7-3.3,4.3-3.6c0,0,2.4,1.6,4.2,3.6H1960 M1426.1,96.6c-0.2-4.9-0.2-9.6-0.5-14.1h21.6
		c-0.4,4.7-0.5,9.2-0.9,14.1H1426.1z M1228.6,96.6c-2-0.5-4-1.1-6.2-1.6c0,0-1.8,0.7-4.5,1.6H1228.6z M544.3,96.6
		c-0.2-5.1-0.2-9.8-0.5-14.1h21.6c-0.4,4.5-0.5,9.2-0.9,14.1H544.3z M2032.3,82.7c-0.9,2.5-2.2,5.1-3.4,7.2l4.3,5.8l10.7-3.1l5.4,4
		h-36.2c-2.9-0.5-7.8-1.3-12-2.2c0,0-3.6-3.6-0.9-4.5c0,0,12.5-0.7,17.9-4.3c0,0,1.1-1.4,1.3-3.1h12.9L2032.3,82.7L2032.3,82.7z
		 M1996.4,82.7l-4,4.5l0.7,9.4h-19c0.9-0.9,1.6-2.4,1.6-4.7c0,0-4.7-10-14.7-9.1c0,0-0.5-0.2-1.4-0.2L1996.4,82.7z M1958.2,82.7
		c-1.4,0.2-3.4,0.9-5.4,2.4l-0.5,10.3c0,0-0.5,0.7,0.4,1.4h-10.9c-0.5-4-1.3-8.9-2-14L1958.2,82.7z M1770.3,82.7
		c0.2,2.9,0.5,8.2,0.5,14.1h14.1c0.5-2.7,1.3-5.4,2.4-7.6c0,0,0.5-2.9,1.3-6.5H1770.3z M1629.1,82.7l-1.8,2.5c0,0-2.9,9.2-9.8,0.7
		c0,0-1.4-1.4-3.6-3.3h-18.3c4,3.4,0.9,7.6,0.9,7.6l-3.6,4.9c-0.5,0.7-1.1,1.3-1.6,1.6h15.4l5.1-5.8l7.1,3.6l-1.6,2.2h17
		c0.2-0.4,0.4-0.7,0.5-1.3c0,0,7.2-6.3,14-12.9L1629.1,82.7L1629.1,82.7z M1572.4,82.7c-1.8,5.1-3.8,10.5-5.1,14.1h20.7
		c-2-0.7-3.6-2.5-3.6-2.5c-7.1-2.9-2.5-6.2-2.5-6.2l2.4-5.1L1572.4,82.7L1572.4,82.7L1572.4,82.7z M1543.9,82.7
		c-0.2,0.7-0.4,1.3-0.5,2c0,0-0.5,5.8-0.9,12h7.8c0.2-0.5,0.4-0.9,0.5-1.6c0,0,1.3-5.6,3.4-12.5L1543.9,82.7L1543.9,82.7z
		 M1520.2,82.7l2.9,14v0.2h11.6c0.4-5.1,0.7-10.1,1.3-14.1L1520.2,82.7L1520.2,82.7z M1392.4,82.7c0.2,2-1.3,4.9-7.8,9.2
		c0,0-0.4,1.8-0.2,4.9h-9.4c-2.7-5.1-6.2-9.2-10.3-7.8c0,0-13.2,1.6-21.7,4.3c0,0-3.4-0.9-5.8-4.7c0,0,2-4,11.1-6.2L1392.4,82.7z
		 M1313.8,82.7c0.2,2.7,0.7,7.8,1.3,14.1h15.6c0-5.4-0.2-10.1-0.5-14.1H1313.8z M1115.9,82.7c-1.3,0.9-2.2,2-2.9,3.6
		c0,0,0.4,2.9,2.5,2.5c0,0,18.3-1.1,18.7,1.1c0,0,0.9,2.9,1.1,6.9h15.4c0.4-1.3,0.9-2.9,1.8-4.5c0,0,2.5-5.4,6.5-5.4
		c0,0,17.9,1.6,25.7-4L1115.9,82.7z M938.3,82.7c-1.6,1.3-3.8,2-6.5,1.6c0,0-2.5,3.8,4.3,5.1c0,0,3.3,3.1,1.3,7.2h27.2v-2.7
		c0,0-3.8-2.5-5.4-2.2l-2.2-5.6c0,0,7.1-0.2,15.2-3.6h-33.9L938.3,82.7L938.3,82.7z M867.6,82.7c0.5,4.2,1.1,9.2,1.8,14h38.2
		c1.8-0.7,8.9-4.2,8.2-10.5c0,0,0.2-1.3,0.4-3.6H901c1.4,1.6,0.5,5.1,0.5,5.1c0,2.9-2.2,3.8-2.2,3.8c-6,2.4-13.8,2.4-13.8,2.4
		c-2.9,0.4-4.7-2.2-4.7-2.2l0.9-5.1c3.3-2.4,6.5-3.6,9.4-4L867.6,82.7z M689.1,82.7c-0.2,3.8-0.9,7.2-3.1,8c0,0-10.5,2.4-19.4,6.2
		H744c1.3-0.2,2.4-0.5,3.8-0.7c0,0,14.1-10.5-5.4-11.6c0,0-0.9-0.9-2.9-1.6h-19.6c-1.3,0.5-2.7,1.3-4,2c0,0-12.3,2-10.3-2h-16.5
		V82.7z M527.6,82.7c0.2,0.2,0.5,0.2,0.7,0.4c0,0,0.4-0.2,0.9-0.4H527.6z M510.2,82.7c1.1,1.8,0.5,5.1-7.4,10.3c0,0-0.2,1.3-0.2,3.6
		h-10c-2.5-4.7-5.8-8-9.6-6.5c0,0-13.2,1.6-21.7,4.3c0,0-3.4-0.9-5.8-4.7c0,0,3.1-6,18.3-7.2L510.2,82.7z M431.8,82.7
		c0.2,2,0.7,7.1,1.3,14.1h15.6c0-5.4-0.4-10.3-0.7-14.1H431.8z"/>
	<path class="st0" d="M1425.6,82.7c-0.4-5.4-0.9-10.3-1.6-14h24.3c-0.4,4.5-0.9,9.2-1.3,14.1L1425.6,82.7 M739.7,82.7
		c-3.6-1.6-10.3-3.6-19.6,0H739.7z M543.8,82.7c-0.4-5.6-0.9-10.5-1.8-14h24.6c-0.5,4.3-0.9,9.2-1.3,14.1L543.8,82.7L543.8,82.7z
		 M1977.4,68.6c-0.5,0.7-1.3,1.4-1.6,2.4c0,0-5.1,1.4-4.3-2.4H1977.4z M1949.7,68.6c-0.4,2.7-0.4,9.2,8.5,8c0,0,8.9,0.2,16.3,6
		l6.2-0.4c0,0,1.8-4.9,5.1-7.1c0,0,16.5-0.7,21.9-4.7l12.5-0.7c0,0,0.2-0.4,0.5-1.1h15.9c-1.3,4.5-2.7,9.6-4.5,14.1h-12.7
		c0.4-2-0.5-4.2-6.2-3.6l-13-0.9l-4.2,4.7h-36.6c-0.5,0-0.9,0-1.6,0h-18.5c-0.7-4.9-1.6-10-2.5-14L1949.7,68.6z M1768.6,68.6
		c0.7,3.1,1.3,6.9,1.3,11.8c0,0,0.2,0.9,0.2,2.2h18.5c0.9-4.7,2-10.5,2-14.1L1768.6,68.6L1768.6,68.6L1768.6,68.6z M1618.6,68.6
		l-0.2,1.3c0,0,10.3-0.7,12,1.4c0,0,4.9,0,1.6,7.1l-3.1,4.2h19.6c5.1-4.9,10.1-10,11.2-12.1c0,0,1.3-0.7,2.2-1.8L1618.6,68.6
		L1618.6,68.6z M1576.9,68.6c0,0.2,0,0.2,0,0.4c0,0-2.2,6.5-4.7,13.6h11.8l0.9-2c1.4-6.2,8.5,0.5,8.5,0.5c0.9,0.5,1.6,0.9,2,1.3
		h18.3c-4.2-3.6-10.9-8.5-14.5-7.1c0,0-4-3.3-7.2-6.9L1576.9,68.6z M1526.3,68.6c-2.9,1.6-5.1,2.9-5.1,2.9s-4.9,3.6-1.4,8.5l0.5,2.5
		h15.6c0.4-2.9,0.7-5.1,1.3-6c0,0,3.6-6.5,7.6-5.3c0,0,1.3,1.6-0.9,11.2h10.3c1.4-4.7,3.3-9.6,5.3-14h-33.2L1526.3,68.6L1526.3,68.6
		z M1397,68.6c-1.1,0.9-1.8,2-1.4,3.6c0,0,4.7,3.1,6.3,9.1c0,0,4.7-1.6,8.5,0.5c0,0,4.3-0.9,2.2-6.3c0,0-1.3-4.3-5.6-6.9
		C1407,68.6,1397,68.6,1397,68.6z M1369.4,68.6c0.9,2.5,3.6,6.2,10.5,10.3l9.4,0.5c0,0,2.7,0.9,3.1,3.3h-44.6
		c2.9-0.7,6.2-1.3,10.3-1.3c0,0,6.3,1.3,4.3-4.2c0,0-0.4-5.1-3.3-8.5h10.1v-0.1C1369.2,68.6,1369.4,68.6,1369.4,68.6z M1308.9,68.6
		c0.5,3.1,2,6.9,4.7,11.8c0,0,0.2,0.9,0.2,2.4h15.9c-0.5-6.2-1.3-9.8-1.3-9.8c0-1.8,0.9-3.3,2.2-4.3L1308.9,68.6L1308.9,68.6z
		 M1134.7,68.6l-0.4,10c0,0,0,2-4.3,2.4c0,0-8.9-2-14.1,1.4h69c0.7-0.5,1.3-1.1,2-1.6c0.5-0.5,1.3-3.4-2.9-4c0,0-14.5-1.8-21.6-4
		v-4.3L1134.7,68.6L1134.7,68.6z M943.4,68.6c0,2.5-0.5,10.5-5.1,14.1h33.9c0.9-0.4,2-0.9,3.1-1.3l-1.3-4.3c0,0-12.9-3.8-18.5-8.5
		L943.4,68.6L943.4,68.6z M866.7,68.6c-0.2,1.3-0.2,2.4,0,4c0,0,0.2,4.3,0.9,10.1h23.7c3.3-0.5,5.4-0.5,5.4-0.5
		c2.2-0.7,3.6-0.4,4.2,0.5h15.2c0.5-3.4,1.3-8.9,3.3-14h-15.2l-1.8,5.1c-6.9,3.8-23.6,1.8-23.6,1.8c0.4-2.9,1.6-5.8,2.4-6.9
		L866.7,68.6z M685.7,68.6c0.9,0.5,1.8,1.1,2.9,1.6c0,0,0.9,6.7,0.7,12.5H706c0.2-0.4,0.5-0.7,0.9-1.3c0,0,5.1-7.8,7.2-12.9
		L685.7,68.6L685.7,68.6z M517.1,68.6c-1.6,0.9-4,2.4-3.4,4.9c0,0,4.7,3.1,6.3,9.1c0,0,4.2-1.4,7.8,0.2h1.6c1.1-0.5,2.7-2.2,1.3-6
		c0,0-1.8-6-8.3-8L517.1,68.6z M487.2,68.6c0.5,2.5,2.9,6.5,10.9,11.4l9.4,0.5c0,0,1.8,0.5,2.5,2h-37c0.9-0.2,2-0.2,3.3-0.2
		c0,0,6.3,1.3,4.3-4.3c0,0-0.5-6.5-4.3-9.6h10.9L487.2,68.6L487.2,68.6z M426.9,68.6c0.2,3.3,1.6,7.4,4.7,13c0,0,0,0.4,0.2,1.1h15.9
		c-0.5-5.4-1.1-8.5-1.1-8.5c0-2.5,1.6-4.3,4.3-5.4h-24.1v-0.2H426.9z"/>
	<path class="st0" d="M1790.6,68.6c0-0.5,0-0.9,0-1.3c0,0,4.5-10.7-3.4-12.5l-17.8-5.1c0,0-8.9-3.3-6.3,8c0,0,3.6,2.7,5.4,11.1
		L1790.6,68.6 M1662.1,68.6c1.3-1.4,2-3.4-1.3-4.9c0,0-15-10.3-29.5-1.3l-11.6,1.3l-1.1,4.9H1662.1z M1591.9,68.6
		c-2-2.4-3.8-4.9-4.3-7.1c0,0-11.8-6.2-10.7,7.1H1591.9z M1559.5,68.6c0.2-0.4,0.4-0.7,0.5-1.1c0,0,3.6-5.3,0.2-6.7l-17.8-8.2
		c0,0-5.1,2.4-5.8,6.2c-0.5,3.3-6,7.1-10.1,9.8H1559.5L1559.5,68.6z M1406.9,68.6c-1.6-0.9-3.6-1.6-6.2-1.8c0,0-2,0.5-3.6,1.8
		H1406.9z M1359.4,68.6c-1.1-1.3-2.4-2.4-4.3-2.7c-0.2,0-17.9-2.2-24.3,2.7h-21.7c-2.4-13.4,13.4-10.7,13.4-10.7
		c50.4-8,105.5-6.2,105.5-6.2c20.5,2,21.2,11.8,21.2,11.8c-0.2,1.6-0.4,3.4-0.5,5.1h-24.3c-0.9-4.2-2-6.7-3.6-6.7
		c0,0-32.8-3.8-50.7,2.4c0,0-1.1,1.6,0,4.3H1359.4L1359.4,68.6z M904.4,68.6l0.4-0.9c0,0,1.6-4.3-2.9-4.7c0,0-11.1-0.5-20.1,4.9
		c0,0-0.2,0.2-0.4,0.5h-14.5c0.7-6.5,4.3-9.8,4.3-9.8c13.2,0.2,27.4-6.9,27.4-6.9c4.3-1.6,14.9-0.7,14.9-0.7
		c6,0.5,12.5,7.6,11.8,8.2c-2.4,2.4-4.3,5.8-5.4,9.2L904.4,68.6z M713.9,68.6c0.9-2,1.3-3.6,0.9-4.2c0,0,6.5-11.1-3.6-13.8
		c-8.9-2.2-22.5-3.6-32.4-1.6c0,0-12,0.2-4.3,8.2c0,0,3.4,6.5,11.1,11.4C685.6,68.6,713.9,68.6,713.9,68.6z M522.4,68.6
		c-1.1-0.4-2.2-0.5-3.6-0.5c0,0-0.7,0.2-1.6,0.5H522.4z M476.3,68.6c-0.9-0.7-2-1.3-3.3-1.6c-0.2,0-14.7-1.8-22.3,1.4h-24.1
		c-1.3-12.1,13.6-9.6,13.6-9.6c50.4-8,105.5-6.2,105.5-6.2c20.5,2,21.2,11.8,21.2,11.8c-0.2,1.3-0.2,2.5-0.4,4H542
		c-0.9-3.4-2-5.4-3.4-5.4c0,0-32.8-3.8-50.7,2.4c0,0-0.7,1.1-0.4,3.3L476.3,68.6L476.3,68.6z M2038.7,47.5c0.9,1.4,1.4,3.6,1.4,6.7
		c0,0-1.1,6.5-3.3,14.5h-15.9c0.9-1.8,2.7-5.4,0.4-6.5l-5.8-0.5c0,0-10.1-9.1-9.2-14.1L2038.7,47.5z M1997,47.5c0.2,1.4,0,4-1.6,7.6
		c0,0,2.2,6.7,6.2,8.2c0,0-0.2,8.2-4.9,1.6c0,0-12.3-4-19.4,3.6h-6.2c0.2-0.4,0.2-0.7,0.4-1.3c0,0,7.2-10.7-2.5-9.4
		c0,0-12.5-0.2-19.4,9.6c0,0-0.2,0.4-0.2,1.1h-12.7c-1.1-4.7-2.2-8.5-3.3-9.6c0,0-6.5-6.7,3.3-5.3l36.1-0.2c0,0,7.8,0.9,5.4-6h18.8
		L1997,47.5L1997,47.5z M1126.8,47.5c0.5,2.2,2,4.7,5.1,6.3c0,0,2.9,2.5,2.9,8.5l-0.2,6.2h27.4l-0.2-18.7c0,0,0.4-0.9,0.4-2.4
		L1126.8,47.5L1126.8,47.5z M958.2,47.5c-2.4,0.5-5.1,1.4-7.8,2.9c0,0-9.4,2-14.9,1.6c0,0-4.3,4.7-1.3,7.2c0,0,7.8,1.3,9.2,8.7
		c0,0,0,0.4,0,0.9h12.1c-1.6-1.3-2.7-2.9-2.7-4.2c0,0-3.8-7.2,15.9-7.4c0,0,6-1.3,8.9,0.2c0,0,8.2-6.7,1.8-8.5c0,0-0.9-0.5-2.5-0.9
		L958.2,47.5z"/>
	<path class="st0" d="M2006.2,47.5c0-0.2,0-0.2,0.2-0.4c0,0,16.5,0.2,25-2.4c0,0,4.9-1.4,7.4,2.7h-32.6 M1978.7,47.5
		c-0.2-0.4-0.2-0.7-0.4-1.1l-1.6-8.2c0,0,10.7,0.9,19,6.5c0,0,1.1,0.5,1.4,2.7L1978.7,47.5L1978.7,47.5z M1162.3,47.5
		c0.2-3.4-1.3-9.2-12.1-9.6c0,0-12.3-1.8-23.2,4c0,0-0.9,2.5-0.2,5.6H1162.3z M976.9,47.5c-3.3-1.1-10-2.4-18.7,0H976.9z"/>
	<path class="st0" d="M1171.2,128.9c0,0,0.5-2.5,0.5-8.2c0,0,7.6-7.2,22.7-10.3l-80.6,0.2c-0.4,0.5-2.2,3.8-6.9,4.2l-4.3,2.5
		l0.9,4.7l22.1-0.2c0,0,5.6-1.1,5.4,10h43.7C1173.7,130.5,1172.4,129.4,1171.2,128.9z M1149,126.9c-4.3,2.2-11.1,0.4-11.1,0.4
		c-4.3-5.1-1.3-6.9-1.3-6.9c6.5-2.5,13.8-4.2,13.8-4.2C1151.9,120.9,1149,126.9,1149,126.9z"/>
</g>
</svg>
